HIERARCHY
ROOT root
{
	OFFSET	0	13.1	24.9
	CHANNELS 6  Xposition Yposition Zposition Xrotation Yrotation Zrotation
	JOINT spine_1
	{
		OFFSET	0	9.99999	0
		CHANNELS 3  Xrotation Yrotation Zrotation
		JOINT spine_2
		{
			OFFSET	0	112	-10
			CHANNELS 3  Xrotation Yrotation Zrotation
			JOINT spine_3
			{
				OFFSET	0	206.5	19.3
				CHANNELS 3  Xrotation Yrotation Zrotation
				JOINT spine_4
				{
					OFFSET	0	110.4	14.6
					CHANNELS 3  Xrotation Yrotation Zrotation
					JOINT neck_1
					{
						OFFSET	0	71.8	-50.3
						CHANNELS 3  Xrotation Yrotation Zrotation
						JOINT neck_2
						{
							OFFSET	0	86.2	-25.8
							CHANNELS 3  Xrotation Yrotation Zrotation
							JOINT head_ee
							{
								OFFSET	0	179.8	-8.7
								CHANNELS 3  Xrotation Yrotation Zrotation
								End Site
								{
									OFFSET	1	0	0
								}
							}
						}
					}
					JOINT left_clavicle
					{
						OFFSET	-43.2	22.4	-70.8
						CHANNELS 3  Xrotation Yrotation Zrotation
						JOINT left_shoulder
						{
							OFFSET	-93.9	-5.79999	48.7
							CHANNELS 3  Xrotation Yrotation Zrotation
							JOINT left_elbow
							{
								OFFSET	-291.4	-30.8	15.2
								CHANNELS 3  Xrotation Yrotation Zrotation
								JOINT left_lowarm_twist
								{
									OFFSET	-110.7	-3.89999	13.6
									CHANNELS 3  Xrotation Yrotation Zrotation
									JOINT left_hand
									{
										OFFSET	-110.7	-3.89999	13.6
										CHANNELS 3  Xrotation Yrotation Zrotation
										JOINT left_ee
										{
											OFFSET	-80.8	-5.10001	12.1
											CHANNELS 3  Xrotation Yrotation Zrotation
											End Site
											{
												OFFSET	1	0	0
											}
										}
									}
								}
							}
						}
					}
					JOINT right_clavicle
					{
						OFFSET	43.2	22.4	-70.8
						CHANNELS 3  Xrotation Yrotation Zrotation
						JOINT right_shoulder
						{
							OFFSET	93.9	-5.79999	48.7
							CHANNELS 3  Xrotation Yrotation Zrotation
							JOINT right_elbow
							{
								OFFSET	291.4	-30.8	15.2
								CHANNELS 3  Xrotation Yrotation Zrotation
								JOINT right_lowarm_twist
								{
									OFFSET	110.7	-3.89999	13.6
									CHANNELS 3  Xrotation Yrotation Zrotation
									JOINT right_hand
									{
										OFFSET	110.7	-3.89999	13.6
										CHANNELS 3  Xrotation Yrotation Zrotation
										JOINT right_ee
										{
											OFFSET	80.8	-5.10001	12.1
											CHANNELS 3  Xrotation Yrotation Zrotation
											End Site
											{
												OFFSET	1	0	0
											}
										}
									}
								}
							}
						}
					}
				}
			}
		}
	}
	JOINT left_hip
	{
		OFFSET	-82.8	-127.5	0.300001
		CHANNELS 3  Xrotation Yrotation Zrotation
		JOINT left_knee
		{
			OFFSET	-28.2	-396.7	2.2
			CHANNELS 3  Xrotation Yrotation Zrotation
			JOINT left_ankle
			{
				OFFSET	-11.7	-411.3	35.4
				CHANNELS 3  Xrotation Yrotation Zrotation
				JOINT left_toes
				{
					OFFSET	0	-60	-88.6
					CHANNELS 3  Xrotation Yrotation Zrotation
					JOINT left_foot_ee
					{
						OFFSET	-22.5	-16.5	-42.2
						CHANNELS 3  Xrotation Yrotation Zrotation
						End Site
						{
							OFFSET	1	0	0
						}
					}
				}
			}
		}
	}
	JOINT right_hip
	{
		OFFSET	82.8	-127.5	0.300001
		CHANNELS 3  Xrotation Yrotation Zrotation
		JOINT right_knee
		{
			OFFSET	28.2	-396.7	2.2
			CHANNELS 3  Xrotation Yrotation Zrotation
			JOINT right_ankle
			{
				OFFSET	11.7	-411.3	35.4
				CHANNELS 3  Xrotation Yrotation Zrotation
				JOINT right_toes
				{
					OFFSET	0	-60	-88.6
					CHANNELS 3  Xrotation Yrotation Zrotation
					JOINT right_foot_ee
					{
						OFFSET	22.5	-16.5	-42.2
						CHANNELS 3  Xrotation Yrotation Zrotation
						End Site
						{
							OFFSET	1	0	0
						}
					}
				}
			}
		}
	}
}
MOTION
Frames: 11
Frame Time: 0.02
2086.68 686.126 -1587.61 -2.14359 63.4899 0.429656 0.792459 0.257207 1.54895 0.79378 0.158134 1.56218 0.798519 -0.151983 1.56279 0.795123 0.096706 1.56718 -6.7445 22.0466 5.04378 -6.67583 37.4683 9.50896 -0.0 0.0 -0.0 -1.69104 24.2288 0.522635 6.76578 -3.15918 68.1116 3.48531 -59.9059 2.00884 72.3175 -2.98432 -8.11881 -0.694597 14.8455 1.76127 -0.0 0.0 -0.0 10.5227 -17.2468 -18.7875 -5.85832 11.9114 -67.3908 0.184845 5.23192 -0.00844535 -19.7124 1.09458 -2.25805 0.0798907 -29.0887 -11.8134 0.0 0.0 0.0 -5.25797 32.1646 -3.38718 -0.956894 0.0382163 0.141873 24.7434 -24.4812 -3.85428 8.19879 -0.0 -0.0 -0.0 0.0 -0.0 0.0447588 5.41213 4.37513 -12.2569 -0.307533 -1.85229 29.3938 10.9479 3.99973 -3.35509 0.0 0.0 0.0 0.0 0.0 
2082.54 684.627 -1590.82 -3.06732 63.4256 0.605703 0.993085 0.36554 1.60356 0.994477 0.262774 1.62357 1.00236 -0.0555621 1.64375 0.998647 0.2047 1.6319 -7.11026 20.6092 6.9766 -7.02668 33.4771 11.1953 -0.0 0.0 -0.0 -1.62163 23.5891 0.51571 5.66278 -2.02582 67.9202 3.56815 -60.4856 2.08073 73.5206 -3.11364 -8.20318 -0.735966 15.633 1.83957 -0.0 0.0 -0.0 10.6611 -16.412 -19.1648 -6.4408 11.7648 -67.1425 0.171581 4.85837 -0.00727895 -19.6957 1.09333 -2.25631 0.131717 -29.2757 -12.1616 0.0 0.0 0.0 -5.30721 33.3166 -2.76099 -0.837056 0.0335607 0.124071 25.4298 -24.9018 -3.96166 9.48084 -0.0 -0.0 -0.0 0.0 -0.0 -0.687213 7.11782 4.96003 -11.1945 -0.296648 -1.68964 28.5731 10.5896 3.90073 -3.34949 0.0 0.0 0.0 0.0 0.0 
2071.37 678.89 -1597.75 -3.53696 65.0947 0.836659 0.960491 0.333307 1.68841 0.962049 0.225209 1.70619 0.969222 -0.109384 1.71751 0.965142 0.163196 1.71323 -5.86751 20.2165 6.49423 -5.65551 32.7337 10.2885 -0.0 0.0 -0.0 -2.56445 23.8329 -0.728221 5.0075 -4.95695 69.1196 3.67191 -61.1836 2.17133 74.6027 -3.23144 -8.27673 -0.7519 17.911 2.70609 -0.0 0.0 -0.0 10.8683 -17.8379 -19.2722 -7.36773 11.831 -66.9961 0.178447 5.05181 -0.00787197 -20.5541 1.15814 -2.34512 0.223318 -29.0683 -12.5966 0.0 0.0 0.0 -7.67948 32.1227 -2.02225 4.08528 -0.18966 -0.597986 22.7443 -27.715 -3.7194 12.1613 -0.0 -0.0 -0.0 0.0 -0.0 -0.72089 7.1413 4.92628 -15.3661 -0.322041 -2.32905 32.5971 7.72425 4.27799 -3.90236 0.0 0.0 0.0 0.0 0.0 
2062.1 674.933 -1603.63 -3.4521 65.2815 0.171612 1.15493 0.487166 1.89138 1.15685 0.365848 1.91853 1.16965 -0.00561724 1.95308 1.16445 0.302848 1.92948 -5.89825 18.969 6.74946 -5.69997 30.2168 10.3142 -0.0 0.0 -0.0 -2.01052 24.1127 0.0726838 3.38022 -4.81079 67.8376 3.84471 -62.2809 2.32354 75.2493 -3.30247 -8.31962 -0.88502 18.4422 2.12785 -0.0 0.0 -0.0 10.9829 -16.1821 -19.7639 -7.89795 11.344 -67.6092 0.177865 5.0354 -0.00782074 -20.7156 1.17049 -2.36172 0.252561 -29.1516 -12.7856 0.0 0.0 0.0 -9.68553 32.8776 -1.07637 5.05631 -0.240992 -0.738068 23.1785 -27.2065 -3.75764 13.3457 -0.0 -0.0 -0.0 0.0 -0.0 -1.6243 8.85131 5.3629 -16.2548 -0.321431 -2.4654 34.4662 6.59933 4.44658 -4.25825 0.0 0.0 0.0 0.0 0.0 
2055.02 673.195 -1607.01 -4.25322 66.2349 0.613115 1.21914 0.569241 2.04007 1.22134 0.438301 2.07213 1.23782 0.0388716 2.11761 1.23176 0.372747 2.08492 -6.78438 16.7587 6.75706 -6.67118 26.3042 10.0893 -0.0 0.0 -0.0 -2.42913 24.3307 -0.45377 1.06078 -7.94904 67.454 4.14811 -64.0309 2.59427 76.6979 -3.46337 -8.41278 -0.976738 19.9913 2.24329 -0.0 0.0 -0.0 11.2528 -15.6357 -20.3353 -8.46412 11.5735 -67.8833 0.184226 5.2145 -0.008389 -21.002 1.19249 -2.39108 0.265184 -28.9973 -12.8045 0.0 0.0 0.0 -9.6633 32.3667 -0.785185 6.19687 -0.304316 -0.901488 22.429 -28.0039 -3.68769 14.8403 -0.0 -0.0 -0.0 0.0 -0.0 -2.07505 11.4399 5.17128 -17.161 -0.318633 -2.60442 35.6354 1.62911 4.49417 -5.31817 0.0 0.0 0.0 0.0 0.0 
2056.31 669.664 -1614.29 -5.84854 66.9754 2.21003 1.31119 0.566532 2.11136 1.31357 0.431065 2.14311 1.33028 0.0218766 2.1859 1.32379 0.366743 2.15504 -6.53353 16.2151 6.43554 -6.41537 25.4568 9.612 -0.0 0.0 -0.0 -2.30708 23.3673 -0.460482 -0.407614 -8.68057 66.7194 4.07229 -63.6132 2.52623 77.4703 -3.5501 -8.46079 -1.22978 20.5226 0.977182 -0.0 0.0 -0.0 11.3404 -14.6091 -20.6722 -7.75082 12.1248 -69.4038 0.191424 5.41705 -0.00905591 -21.2981 1.2154 -2.42131 0.36471 -29.1222 -13.3961 0.0 0.0 0.0 -7.7212 31.5237 -2.37587 6.15564 -0.301971 -0.895603 22.8291 -30.5842 -3.86882 16.149 -0.0 -0.0 -0.0 0.0 -0.0 -1.48567 13.4502 4.20315 -18.4633 -0.310761 -2.80407 40.0231 4.08928 4.92055 -4.97507 0.0 0.0 0.0 0.0 0.0 
2056.25 667.211 -1618.2 -7.60114 68.8032 3.72129 1.45746 0.509972 2.21591 1.46012 0.367971 2.24385 1.475 -0.0532863 2.27319 1.46792 0.306297 2.2531 -7.2282 14.847 4.91809 -7.1957 24.1465 7.97308 -0.0 0.0 -0.0 -2.46318 22.8668 -0.766272 -1.52542 -11.3842 66.7357 3.85653 -62.3531 2.334 77.5828 -3.56279 -8.46768 -1.6247 21.3228 -0.981251 -0.0 0.0 -0.0 11.3338 -13.6583 -20.8216 -7.5471 12.3676 -70.3535 0.180466 5.10866 -0.00805087 -21.2515 1.21178 -2.41655 0.642793 -29.1194 -14.9425 0.0 0.0 0.0 -6.7677 30.5998 -2.5465 6.07082 -0.297158 -0.883489 23.2793 -30.5336 -3.93132 17.2937 -0.0 -0.0 -0.0 0.0 -0.0 -1.34571 13.4907 3.60411 -19.2189 -0.304114 -2.91982 40.1866 -1.59386 4.88217 -7.00954 0.0 0.0 0.0 0.0 0.0 
2057.53 665.796 -1620.69 -11.1921 70.0412 7.0157 1.41006 0.580301 2.29883 1.4129 0.432885 2.33108 1.43109 -0.00738912 2.3709 1.42344 0.367038 2.34234 -7.48504 14.8956 5.007 -7.46593 24.2268 8.1216 -0.0 0.0 -0.0 -2.13109 22.9322 -0.293553 -1.52284 -11.5854 66.9222 3.48562 -59.9082 2.00912 76.7301 -3.46696 -8.4148 -1.99293 22.1219 -2.74972 -0.0 0.0 -0.0 11.5837 -12.7459 -21.4351 -7.12158 12.7895 -70.9086 0.197949 5.60055 -0.00968224 -22.0522 1.27444 -2.49777 0.741066 -29.0261 -15.4649 0.0 0.0 0.0 -3.14894 29.9212 -3.52964 3.09392 -0.139717 -0.454115 25.7629 -30.034 -4.25337 19.419 -0.0 -0.0 -0.0 0.0 -0.0 -1.27476 15.4245 2.85612 -18.2074 -0.312666 -2.76485 41.0474 -4.23569 4.9475 -6.0735 0.0 0.0 0.0 0.0 0.0 
2048.86 661.81 -1627.29 -12.7407 71.072 8.33373 1.46152 0.637407 2.37271 1.46452 0.485179 2.40843 1.48551 0.0320134 2.45658 1.47734 0.419467 2.42073 -6.52269 15.4068 4.03831 -6.464 25.6848 7.07646 -0.0 0.0 -0.0 -1.94376 23.152 0.00282762 -2.4333 -12.757 66.7554 2.94526 -55.5621 1.55186 75.0962 -3.28561 -8.30954 -2.33677 23.5325 -4.03377 -0.0 0.0 -0.0 11.3909 -10.5541 -21.4143 -6.00757 13.0868 -73.3288 0.194901 5.51486 -0.0093871 -22.0546 1.27462 -2.49801 1.35338 -28.949 -18.9238 0.0 0.0 0.0 -1.16834 29.4346 -4.57275 0.411138 -0.0171479 -0.0607616 28.6777 -29.9991 -4.63872 21.1845 -0.0 -0.0 -0.0 0.0 -0.0 -2.56831 15.7871 2.93388 -16.2375 -0.321464 -2.46274 41.3695 -3.55478 4.9754 -4.13501 0.0 0.0 0.0 0.0 0.0 
2041.44 658.763 -1627.8 -15.0735 72.9364 10.5926 1.54234 0.603761 2.34104 1.54528 0.453614 2.37468 1.56457 0.0105359 2.41757 1.55663 0.392104 2.38561 -7.84557 15.2239 4.81189 -7.85795 25.055 8.07734 -0.0 0.0 -0.0 -1.57572 23.8941 0.625861 -3.15113 -13.5034 66.9287 2.46203 -50.6427 1.16506 73.2308 -3.08232 -8.1831 -2.58763 23.7276 -5.37261 -0.0 0.0 -0.0 11.5226 -9.58675 -21.8074 -5.09078 12.9848 -73.5467 0.20781 5.87764 -0.0106684 -21.7536 1.25094 -2.46759 2.02772 -29.0623 -22.8978 0.0 0.0 0.0 0.903474 27.9729 -5.70049 -2.89853 0.108444 0.431565 31.7704 -29.8524 -5.01499 25.2208 -0.0 -0.0 -0.0 0.0 -0.0 -2.1801 13.7193 3.16137 -16.9763 -0.319382 -2.57609 41.631 -2.90522 4.9986 -1.31653 0.0 0.0 0.0 0.0 0.0 
2029.49 659.792 -1632.36 -14.535 73.3643 10.127 1.38157 0.737436 2.25763 1.38421 0.592322 2.29994 1.40869 0.154268 2.36994 1.40124 0.526519 2.31589 -8.47186 15.1046 5.06249 -8.51635 24.7808 8.42513 -0.0 0.0 -0.0 -1.61025 25.3177 0.801725 -4.91427 -12.9918 67.2143 2.37416 -49.619 1.09762 72.2707 -2.97933 -8.11548 -2.80952 24.3853 -6.29199 -0.0 0.0 -0.0 11.3567 -8.50411 -21.6327 -3.73857 13.3696 -74.3916 0.271067 7.64803 -0.0181184 -21.9679 1.26778 -2.48926 2.59865 -28.1594 -26.1891 0.0 0.0 0.0 1.99145 27.2327 -6.43767 -6.40856 0.210314 0.960527 33.5616 -27.0294 -5.05526 27.9705 -0.0 -0.0 -0.0 0.0 -0.0 -3.06274 11.1757 3.12935 -17.5503 -0.316755 -2.66411 40.7489 -2.37669 4.92662 -0.319698 0.0 0.0 0.0 0.0 0.0 
